      <svg id="Layer_1" viewBox="0 0 100 100" xmlns="http://www.w3.org/2000/svg" data-name="Layer 1"><path d="m86.24 87.57c.02-.1.05-.2.05-.31.25-7.18-1.39-14.27-4.66-20.66-1.32-2.58-5.2-.3-3.89 2.27 2.35 4.59 3.67 9.6 3.98 14.71-8.42-4.28-17.04-9.38-20.95-18.33-1.89-4.33-2.46-9.46-.52-13.88 2.18-4.98 6.54-8.61 9.71-12.92 3.18-4.33 5.76-10.31 3.64-15.66-2.26-5.7-9.2-5.82-14.11-3.82-4.96 2.02-8.87 5.69-13.32 8.56-4.74 3.06-9.94 5.34-15.41 6.7-2.58.64-5.75 1.23-8.14-.31-2.18-1.4-3.03-4.2-3.58-6.58-1.48-6.42-1.03-13.16 1.04-19.39.91-2.76-3.43-3.94-4.34-1.2-1.94 5.86-2.51 12.1-1.68 18.21.74 5.4 2.46 11.56 8.07 13.7 5.25 2 11.74-.34 16.67-2.31 5.42-2.17 10.15-5.18 14.83-8.62 3.69-2.71 8.63-6.53 13.55-5.25 2.59.67 2.9 3.64 2.57 5.93-.4 2.73-1.84 5.22-3.42 7.43-3.18 4.45-7.54 8.04-9.88 13.08-2.3 4.95-2.4 10.53-.71 15.69 3.74 11.4 13.9 17.79 24.05 23.01-.25.13-.51.26-.8.4-1.34.63-3.23 1.21-4.89 1.59-1.78.41-3.26.62-5.05.72-.83.05-1.67.07-2.51.04-.39-.01-.77-.03-1.16-.06-.18-.02-.37-.03-.55-.05-.04 0-.06 0-.08 0-.03 0-.07-.01-.15-.03-1.2-.19-2.42.31-2.77 1.57-.29 1.07.36 2.58 1.57 2.77 3.95.62 8.01.27 11.89-.61 3.68-.84 7.69-2.28 10.33-5.1.26-.28.43-.58.53-.89.03-.1.05-.21.07-.32 0-.02 0-.05.01-.07z"/></svg>